<svg width="40" height="40" viewBox="0 0 40 40" fill="none" xmlns="http://www.w3.org/2000/svg">
<path d="M20 0.5C30.7696 0.5 39.5 9.23045 39.5 20C39.5 30.7696 30.7696 39.5 20 39.5C9.23045 39.5 0.5 30.7696 0.5 20C0.5 9.23045 9.23045 0.5 20 0.5Z" fill="#FFA000" fill-opacity="0.0627451"/>
<path d="M20 0.5C30.7696 0.5 39.5 9.23045 39.5 20C39.5 30.7696 30.7696 39.5 20 39.5C9.23045 39.5 0.5 30.7696 0.5 20C0.5 9.23045 9.23045 0.5 20 0.5Z" stroke="#B8860B"/>
<path d="M30.7466 17.0417L13.4966 11.0417C13.3835 11.0023 13.2627 10.9906 13.1441 11.0075C13.0256 11.0244 12.9129 11.0694 12.8153 11.1388C12.7178 11.2082 12.6382 11.2999 12.5834 11.4063C12.5285 11.5127 12.4999 11.6307 12.5 11.7504V28.2504C12.5 28.4494 12.579 28.6401 12.7197 28.7808C12.8603 28.9214 13.0511 29.0004 13.25 29.0004C13.4489 29.0004 13.6397 28.9214 13.7803 28.7808C13.921 28.6401 14 28.4494 14 28.2504V24.2839L30.7466 18.4592C30.8939 18.4082 31.0217 18.3125 31.1122 18.1855C31.2026 18.0585 31.2513 17.9064 31.2513 17.7504C31.2513 17.5945 31.2026 17.4424 31.1122 17.3154C31.0217 17.1884 30.8939 17.0927 30.7466 17.0417ZM14 22.6958V12.8051L28.2172 17.7504L14 22.6958Z" fill="#413725"/>
</svg>
