<svg width="12" height="12" viewBox="0 0 12 12" fill="none" xmlns="http://www.w3.org/2000/svg">
<path d="M11.1185 4.81182L8.19433 7.74581C8.44371 8.4387 8.54707 9.59917 7.47301 11.0271C7.39789 11.1275 7.30198 11.2105 7.19183 11.2704C7.08169 11.3303 6.95991 11.3658 6.8348 11.3743C6.81402 11.3743 6.79379 11.3743 6.77301 11.3743C6.65803 11.3743 6.54417 11.3517 6.43795 11.3077C6.33173 11.2637 6.23522 11.1992 6.15394 11.1178L3.51472 8.47588L1.1834 10.8089C1.1013 10.8909 0.989962 10.9371 0.873865 10.9371C0.757768 10.9371 0.646426 10.8909 0.564334 10.8089C0.482241 10.7268 0.436122 10.6154 0.436122 10.4993C0.436122 10.3832 0.482241 10.2719 0.564334 10.1898L2.8973 7.85846L0.255896 5.21706C0.169074 5.13013 0.101532 5.02589 0.0576671 4.91112C0.0138024 4.79636 -0.00540194 4.67364 0.00130463 4.55096C0.00801121 4.42828 0.0404782 4.30839 0.096592 4.19909C0.152706 4.08979 0.231209 3.99354 0.32699 3.91659C1.71715 2.79495 3.04769 3.01534 3.63011 3.19799L6.56136 0.256352C6.64262 0.17508 6.73909 0.11061 6.84526 0.0666245C6.95143 0.0226392 7.06523 0 7.18015 0C7.29508 0 7.40888 0.0226392 7.51505 0.0666245C7.62122 0.11061 7.71769 0.17508 7.79894 0.256352L11.1179 3.57479C11.282 3.7388 11.3742 3.96123 11.3743 4.19319C11.3744 4.42516 11.2824 4.64767 11.1185 4.81182Z" fill="#211F26"/>
</svg>
